<?xml version="1.0" encoding="utf-8"?>
<!-- Generator: Adobe Illustrator 18.1.1, SVG Export Plug-In . SVG Version: 6.00 Build 0)  -->
<!DOCTYPE svg PUBLIC "-//W3C//DTD SVG 1.1//EN" "http://www.w3.org/Graphics/SVG/1.1/DTD/svg11.dtd">
<svg version="1.1" id="Ebene_1" xmlns="http://www.w3.org/2000/svg" xmlns:xlink="http://www.w3.org/1999/xlink" x="0px" y="0px"
	 viewBox="246 150 300 296" enable-background="new 246 150 300 296" xml:space="preserve">
<circle fill="none" stroke="#000000" stroke-width="15" stroke-miterlimit="10" cx="395" cy="296.6" r="133"/>
<g enable-background="new    ">
	<path d="M341.8,283.2v41.2h-18.7V213.9h42.7c22.9,0,37.8,11.9,37.8,34.7c0,22.5-14.9,34.6-37.8,34.6L341.8,283.2L341.8,283.2z
		 M365.4,230.1h-23.6V267h23.6c13,0,19.6-7.7,19.6-18.4C385,237.7,378.4,230.1,365.4,230.1z"/>
</g>
<g enable-background="new    ">
	<path d="M418.6,344.9c3.6,11.3,13,16.6,25,16.6c13,0,21.4-6.1,21.4-16.4c0-7.7-4.5-12.2-16-14.9l-18.7-4.5
		c-15.3-3.6-27.5-11.9-27.5-29.7c0-18.7,15.3-32.8,37.6-32.8c23.9,0,38,12.2,41.9,30.6h-18.7c-2.9-8.3-9.9-14.8-23-14.8
		c-11.9,0-20,6.1-20,15.3c0,7.4,4.7,12.1,14.6,14.4l19.3,4.5c17.3,4,28.6,14,28.6,30.6c0,20.7-16.6,33.5-39.4,33.5
		c-23.4,0-40.1-11.9-44.1-32.4L418.6,344.9L418.6,344.9z"/>
</g>
<rect x="323.9" y="346.3" width="51.3" height="11.9"/>
</svg>
