<?xml version="1.0" encoding="utf-8"?>
<!-- Generator: Adobe Illustrator 18.1.1, SVG Export Plug-In . SVG Version: 6.00 Build 0)  -->
<!DOCTYPE svg PUBLIC "-//W3C//DTD SVG 1.1//EN" "http://www.w3.org/Graphics/SVG/1.1/DTD/svg11.dtd">
<svg version="1.1" id="Ebene_1" xmlns="http://www.w3.org/2000/svg" xmlns:xlink="http://www.w3.org/1999/xlink" x="0px" y="0px"
	 viewBox="187 107 426 382" enable-background="new 187 107 426 382" xml:space="preserve">
<g enable-background="new    ">
	<path d="M280,273v83.5h-37.9v-224h86.6c46.4,0,76.6,24.1,76.6,70.3c0,45.6-30.2,70.1-76.6,70.1L280,273L280,273z M327.8,165.4H280
		v74.8h47.8c26.4,0,39.7-15.6,39.7-37.3C367.5,180.8,354.2,165.4,327.8,165.4z"/>
</g>
<g enable-background="new    ">
	<path d="M435.6,398.1c7.3,22.9,26.4,33.6,50.7,33.6c26.4,0,43.4-12.4,43.4-33.2c0-15.6-9.1-24.7-32.4-30.2l-37.9-9.1
		c-31-7.3-55.7-24.1-55.7-60.2c0-37.9,31-66.5,76.2-66.5c48.4,0,77,24.7,84.9,62h-37.9c-5.9-16.8-20.1-30-46.6-30
		c-24.1,0-40.5,12.4-40.5,31c0,15,9.5,24.5,29.6,29.2l39.1,9.1c35.1,8.1,58,28.4,58,62c0,42-33.6,67.9-79.9,67.9
		c-47.4,0-81.3-24.1-89.4-65.7L435.6,398.1L435.6,398.1z"/>
</g>
<rect x="243.7" y="400.9" width="104" height="24.1"/>
</svg>
